<svg width="0" height="0" class="hidden">
  <symbol xmlns="http://www.w3.org/2000/svg" viewBox="0 0 32 32" id="check">
    <path d="M16 2.672C8.639 2.672 2.672 8.639 2.672 16S8.64 29.328 16 29.328c7.361 0 13.328-5.967 13.328-13.328S23.361 2.672 16 2.672zm0 25.59C9.239 28.262 3.738 22.761 3.738 16S9.238 3.738 16 3.738c6.761 0 12.262 5.501 12.262 12.262S22.762 28.262 16 28.262z"></path>
    <path d="M22.667 11.241l-8.559 8.299-2.998-2.998a.8.8 0 0 0-1.131 1.131l3.555 3.555a.797.797 0 0 0 1.121.009l9.124-8.848a.8.8 0 0 0-1.113-1.149z"></path>
  </symbol>
  <symbol xmlns="http://www.w3.org/2000/svg" viewBox="0 0 27 32" id="like2">
    <path d="M27.275 15.638c0-1.288-1.02-2.282-2.374-2.282h-8.536c.545-1.265 1.524-3.919 1.524-6.659 0-3.128-1.569-3.784-2.886-3.784-.816 0-1.996.619-1.996 1.737 0 .472-.075 4.671-2.639 6.822-2.732 2.292-3.509 2.891-5.005 2.891-1.746 0-4.847.038-4.847.038l-.517.007v12.206h5.712c.371 0 1.483.496 2.466.932 1.622.722 3.459 1.541 4.696 1.541l8.25-.003c1.343 0 2.436-1.056 2.436-2.354 0-.529-.189-1.012-.494-1.405a2.35 2.35 0 0 0 1.711-2.254c0-.539-.19-1.031-.496-1.429a2.397 2.397 0 0 0 1.677-2.277c0-.538-.184-1.031-.485-1.431a2.372 2.372 0 0 0 1.801-2.295zm-2.374 1.324h-1.822v1.049h.477c.746 0 1.353.607 1.353 1.353s-.608 1.353-1.353 1.353H22.03v1.049h.394a1.306 1.306 0 0 1 0 2.61h-1.443v1.049h.143c.764 0 1.387.586 1.387 1.305 0 .72-.623 1.305-1.387 1.305h-1.34v.003h-6.91c-1.014 0-2.819-.804-4.27-1.45-1.425-.634-2.326-1.023-2.892-1.023H1.049V15.444c.955-.011 3.013-.032 4.315-.032 1.94 0 2.959-.854 5.679-3.136 2.868-2.406 3.014-6.774 3.014-7.626 0-.428.657-.688.947-.688.549 0 1.837 0 1.837 2.735 0 3.456-1.745 6.91-1.762 6.945l-.39.763h6.426c.018.013.03 0 .03 0h3.757c.767 0 1.325.532 1.325 1.233 0 .73-.594 1.324-1.325 1.324z"></path>
  </symbol>
  <symbol xmlns="http://www.w3.org/2000/svg" viewBox="0 0 32 32" id="search">
    <path d="M28.591 27.273l-7.263-7.264a10.085 10.085 0 0 0 2.339-6.471c0-5.595-4.535-10.129-10.129-10.129-5.594 0-10.129 4.535-10.129 10.129 0 5.594 4.536 10.129 10.129 10.129 2.462 0 4.716-.879 6.471-2.339l7.263 7.264 1.319-1.319zM4.475 13.538c0-4.997 4.065-9.063 9.063-9.063 4.997 0 9.063 4.066 9.063 9.063s-4.066 9.063-9.063 9.063c-4.998 0-9.063-4.066-9.063-9.063z"></path>
  </symbol>
</svg>